<?xml version="1.0" encoding="UTF-8"?>
<svg id="Layer_1" xmlns="http://www.w3.org/2000/svg" version="1.1" viewBox="0 0 474.41 107.6">
  <!-- Generator: Adobe Illustrator 29.8.3, SVG Export Plug-In . SVG Version: 2.1.1 Build 3)  -->
  <defs>
    <style>
      .st0 {
        fill-rule: evenodd;
      }

      .st0, .st1 {
        fill: #058ab5;
      }
    </style>
  </defs>
  <path class="st0" d="M459.37,101.78c0,1.13-.53,1.94-1.36,2.48-.92.6-2.21.86-3.53.86s-2.6-.28-3.67-.88c-.85-.48-1.56-1.16-2.02-2.07l-2.36,1.22c.69,1.51,1.7,2.54,2.97,3.2,1.39.72,3.09,1.02,5.02,1.02,2.24,0,4.34-.51,5.79-1.61,1.23-.94,2.01-2.32,2.01-4.21,0-2.17-.87-3.49-2.22-4.33-1.39-.87-3.31-1.25-5.3-1.49-1.2-.14-2.33-.34-3.17-.73-.94-.43-1.53-1.09-1.53-2.13,0-.9.42-1.7,1.28-2.25.73-.47,1.79-.75,3.17-.75,1.06,0,2.07.25,2.9.65.79.37,1.44.88,1.86,1.42l2.26-1.16c-.62-1.09-1.5-1.85-2.51-2.36-1.37-.69-3.01-.94-4.62-.94-1.89.01-3.89.49-5.29,1.55-1.12.84-1.86,2.07-1.86,3.74,0,2.02.85,3.28,2.15,4.08,1.36.83,3.22,1.2,5.17,1.44,1.35.15,2.53.42,3.38.9.93.52,1.49,1.29,1.49,2.37h0Z"/>
  <path class="st1" d="M68.38,16.93c7.21,0,13.73,2.92,18.46,7.65.72.72,1.39,1.47,2.02,2.27V0h5.56v41.1c.05.64.07,1.28.07,1.93s-.02,1.29-.07,1.93h0s0,0,0,0c-.47,6.43-3.28,12.22-7.58,16.52-4.72,4.72-11.25,7.65-18.46,7.65s-13.73-2.92-18.46-7.65c-4.72-4.72-7.65-11.25-7.65-18.46s2.92-13.73,7.65-18.46c4.72-4.72,11.25-7.65,18.46-7.65h0ZM88.85,43.99v-1.92c-.24-5.28-2.48-10.04-5.98-13.53-3.71-3.71-8.83-6-14.5-6s-10.79,2.29-14.49,6c-3.71,3.71-6,8.83-6,14.49s2.29,10.79,6,14.49c3.71,3.71,8.83,6,14.49,6s10.79-2.29,14.5-6c3.5-3.5,5.74-8.26,5.98-13.53h0Z"/>
  <path class="st1" d="M146.77,17.27c7.21,0,13.73,2.92,18.46,7.65,4.72,4.72,7.65,11.25,7.65,18.46,0,.99-.06,1.98-.16,2.94h-46.23c.64,4.48,2.74,8.5,5.79,11.56,3.71,3.71,8.83,6,14.49,6s10.79-2.29,14.5-6c.89-.89,1.7-1.87,2.42-2.91h6.48c-1.27,2.56-2.94,4.88-4.94,6.87-4.72,4.72-11.25,7.65-18.46,7.65s-13.73-2.92-18.46-7.65c-4.72-4.72-7.65-11.25-7.65-18.46s2.92-13.73,7.65-18.46c4.72-4.72,11.25-7.65,18.46-7.65h0ZM167.09,40.65c-.61-4.57-2.72-8.67-5.82-11.77-3.71-3.71-8.83-6-14.5-6s-10.79,2.29-14.49,6c-3.1,3.1-5.22,7.2-5.82,11.77h40.64Z"/>
  <path class="st1" d="M220.04,16.82c7.21,0,13.73,2.92,18.46,7.65,1.06,1.06,2.03,2.21,2.9,3.45v-10.73h5.72v66.14h0c0,.2-.08,2.23-.77,5.21-1.27,4.06-3.52,7.7-6.46,10.64-4.72,4.72-11.25,7.65-18.46,7.65s-13.73-2.92-18.46-7.65c-3.68-3.68-6.26-8.45-7.23-13.78h5.72c.88,3.78,2.81,7.17,5.47,9.82,3.71,3.71,8.83,6,14.49,6s10.79-2.29,14.49-6c1.68-1.68,3.07-3.65,4.09-5.83.05-.14.12-.28.2-.44.34-.77.63-1.57.88-2.39.2-.87.28-1.68.31-2.31v-26.3c-.87,1.23-1.84,2.38-2.9,3.45-4.72,4.72-11.25,7.65-18.46,7.65s-13.73-2.92-18.46-7.65c-4.72-4.72-7.65-11.25-7.65-18.46s2.92-13.73,7.65-18.46c4.72-4.72,11.25-7.65,18.46-7.65h0ZM234.54,28.43c-3.71-3.71-8.83-6-14.49-6s-10.79,2.29-14.49,6-6,8.83-6,14.49,2.29,10.79,6,14.49c3.71,3.71,8.83,6,14.49,6s10.79-2.29,14.49-6c3.71-3.71,6-8.83,6-14.49s-2.29-10.79-6-14.49h0Z"/>
  <path class="st1" d="M359.96,17.29c7.21,0,13.73,2.92,18.46,7.65,4.72,4.72,7.65,11.25,7.65,18.46,0,.99-.06,1.96-.16,2.92h-46.23c.64,4.49,2.74,8.52,5.8,11.58,3.71,3.71,8.83,6,14.49,6s10.79-2.29,14.5-6c.9-.9,1.71-1.88,2.43-2.93h6.48c-1.27,2.56-2.95,4.89-4.95,6.89-4.72,4.72-11.25,7.65-18.46,7.65s-13.73-2.92-18.46-7.65c-4.72-4.72-7.65-11.25-7.65-18.46s2.92-13.73,7.65-18.46c4.72-4.72,11.25-7.65,18.46-7.65h0ZM380.24,40.42c-.65-4.47-2.74-8.47-5.79-11.52-3.71-3.71-8.83-6-14.5-6s-10.79,2.29-14.49,6c-3.05,3.05-5.14,7.05-5.79,11.52h40.56Z"/>
  <path class="st1" d="M292.04,17.71c5.82,0,11.09,2.36,14.9,6.17,3.12,3.12,5.27,7.22,5.95,11.8h-5.69c-.62-3.03-2.12-5.73-4.22-7.83-2.8-2.8-6.67-4.53-10.94-4.53s-8.15,1.73-10.95,4.52c-2.6,2.61-4.28,6.14-4.5,10.06v31.53h-5.61v-31.53c.23-5.47,2.54-10.4,6.16-14.02,3.83-3.81,9.09-6.17,14.9-6.17h0Z"/>
  <path class="st1" d="M435.41,17.29c7.21,0,13.73,2.92,18.46,7.65,4.72,4.72,7.65,11.25,7.65,18.46,0,.99-.06,1.96-.16,2.92h-46.23c.64,4.49,2.74,8.52,5.8,11.58,3.71,3.71,8.83,6,14.49,6s10.79-2.29,14.5-6c.9-.9,1.71-1.88,2.43-2.93h6.48c-1.27,2.56-2.95,4.89-4.95,6.89-4.72,4.72-11.25,7.65-18.46,7.65s-13.73-2.92-18.46-7.65c-4.72-4.72-7.65-11.25-7.65-18.46s2.92-13.73,7.65-18.46c4.72-4.72,11.25-7.65,18.46-7.65h0ZM455.74,40.71c-.6-4.59-2.72-8.7-5.83-11.81-3.71-3.71-8.83-6-14.5-6s-10.79,2.29-14.49,6c-3.11,3.11-5.23,7.23-5.83,11.81h40.65Z"/>
  <path class="st1" d="M14.07.3c3.89,0,7.41,1.58,9.95,4.12,2.55,2.55,4.12,6.07,4.12,9.95s-1.58,7.41-4.12,9.95c-2.55,2.55-6.07,4.12-9.95,4.12s-7.41-1.58-9.95-4.12C1.58,21.78,0,18.26,0,14.38S1.58,6.97,4.12,4.43C6.67,1.88,10.19.3,14.07.3h0ZM20.06,8.39c-1.53-1.53-3.65-2.48-5.99-2.48s-4.45.95-5.99,2.48c-1.53,1.53-2.48,3.65-2.48,5.99s.95,4.45,2.48,5.99,3.65,2.48,5.99,2.48,4.45-.95,5.99-2.48c1.53-1.53,2.48-3.65,2.48-5.99s-.95-4.45-2.48-5.99h0Z"/>
  <polygon class="st0" points="292.57 103.3 287.41 88.35 285.58 88.35 280.93 102.18 280.51 103.19 275.65 88.35 272.39 88.35 279.26 107.1 281.84 107.1 284.1 101.29 286.13 95.05 286.48 93.84 288.96 101.21 291.28 107.1 293.86 107.1 300.6 88.35 297.34 88.35 292.96 102.18 292.57 103.3 292.57 103.3"/>
  <polygon class="st0" points="309.09 88.35 309.09 107.1 322.91 107.1 322.91 104.28 311.94 104.28 311.94 99.06 322.51 99.06 322.51 96.44 311.94 96.44 311.94 91.11 322.91 91.11 322.91 88.35 309.09 88.35 309.09 88.35"/>
  <polygon class="st0" points="331.87 88.35 331.87 107.1 344.79 107.1 344.79 104.5 334.75 104.5 334.75 88.35 331.87 88.35 331.87 88.35"/>
  <polygon class="st0" points="353.51 88.35 353.51 107.1 366.43 107.1 366.43 104.5 356.38 104.5 356.38 88.35 353.51 88.35 353.51 88.35"/>
  <polygon class="st0" points="375.42 88.35 375.42 107.1 378.3 107.1 378.3 94.31 378.26 93.13 389.17 107.1 390.86 107.1 390.86 88.35 387.98 88.35 387.96 101.15 387.26 100.32 377.81 88.35 375.42 88.35 375.42 88.35"/>
  <polygon class="st0" points="400.3 88.35 400.3 107.1 414.11 107.1 414.11 104.28 403.15 104.28 403.15 99.06 413.72 99.06 413.72 96.44 403.15 96.44 403.15 91.11 414.11 91.11 414.11 88.35 400.3 88.35 400.3 88.35"/>
  <path class="st0" d="M423.42,92.99c0,2.02.85,3.28,2.15,4.08,1.36.83,3.22,1.2,5.17,1.44,1.35.15,2.53.42,3.38.9.93.52,1.49,1.29,1.49,2.37s-.53,1.94-1.36,2.48c-.92.6-2.21.86-3.53.86s-2.6-.28-3.67-.88c-.85-.48-1.56-1.16-2.02-2.07l-2.36,1.22c.69,1.51,1.7,2.54,2.97,3.2,1.39.72,3.09,1.02,5.02,1.02,2.24,0,4.34-.51,5.79-1.61,1.23-.94,2.01-2.32,2.01-4.21,0-2.17-.87-3.49-2.22-4.33-1.39-.87-3.31-1.25-5.3-1.49-1.2-.14-2.33-.34-3.17-.73-.94-.43-1.53-1.09-1.53-2.13,0-.9.42-1.7,1.28-2.25.73-.47,1.79-.75,3.17-.75,1.06,0,2.07.25,2.9.65.79.37,1.44.88,1.86,1.42l2.26-1.16c-.62-1.09-1.5-1.85-2.51-2.36-1.37-.69-3.01-.94-4.62-.94-1.89.01-3.89.49-5.29,1.55-1.12.84-1.86,2.07-1.86,3.74h0Z"/>
  <g>
    <path class="st1" d="M469.83,26.23c-2.53,0-4.58-2.05-4.58-4.58s2.05-4.58,4.58-4.58,4.58,2.05,4.58,4.58-2.05,4.58-4.58,4.58ZM469.83,17.83c-2.11,0-3.82,1.71-3.82,3.82s1.71,3.82,3.82,3.82,3.82-1.71,3.82-3.82-1.71-3.82-3.82-3.82Z"/>
    <path class="st1" d="M471.81,20.95c0,.73-.32,1.18-.95,1.37l1.15,1.6h-.94l-1.05-1.48h-.97v1.48h-.74v-4.39h1.63c.67,0,1.15.11,1.44.34.29.23.43.59.43,1.09ZM470.82,21.57c.15-.13.23-.34.23-.63s-.08-.48-.23-.59c-.16-.11-.43-.16-.83-.16h-.94v1.57h.92c.42,0,.7-.06.86-.19Z"/>
  </g>
</svg>